# xmcd CD database file
#
# Track frame offsets:
#	150
#	27407
#	44933
#	70163
#	80232
#	107538
#	131974
#	158545
#	179679
#	210120
#	232557
#
# Disc length: 3528 seconds
#
# Revision: 0
# Processed by: cddbd v1.5.2PL0 Copyright (c) Steve Scherf et al.
# Submitted via: CDex 1.51
#
DISCID=920dc60b
DTITLE=Mozdzer Danielsson Fresco - Between Us And The Light
DYEAR=2006
DGENRE=Jazz
TTITLE0=Requiem 18/09
TTITLE1=Light up the lie
TTITLE2=Ex Ego
TTITLE3=The O
TTITLE4=Adama
TTITLE5=Abraham's bells
TTITLE6=Fake master's hypnosis
TTITLE7=Psalmem
TTITLE8=Eden
TTITLE9=Pub 700 (Between us and the light
TTITLE10=Abraham's bells II
EXTD=YEAR: 2006
EXTT0=
EXTT1=
EXTT2=
EXTT3=
EXTT4=
EXTT5=
EXTT6=
EXTT7=
EXTT8=
EXTT9=
EXTT10=
PLAYORDER=
